<svg xmlns="http://www.w3.org/2000/svg" version="1.1" xmlns:xlink="http://www.w3.org/1999/xlink" width="512" height="512" x="0" y="0" viewBox="0 0 64 64" style="enable-background:new 0 0 512 512" xml:space="preserve" class=""><g><path d="M49.09 4H14.91a5.002 5.002 0 0 0-5 5v46a5.002 5.002 0 0 0 5 5h34.18a5.002 5.002 0 0 0 5-5V9a5.002 5.002 0 0 0-5-5zM18 26.4h5.2a3.009 3.009 0 0 1 3 3v5.2a3.009 3.009 0 0 1-3 3H18a3.009 3.009 0 0 1-3-3v-5.2a3.009 3.009 0 0 1 3-3zm-3-8.1v-5.2a3.009 3.009 0 0 1 3-3h5.2a3.009 3.009 0 0 1 3 3v5.2a3.009 3.009 0 0 1-3 3H18a3.009 3.009 0 0 1-3-3zm3 24.4h5.2a3.009 3.009 0 0 1 3 3v5.2a3.009 3.009 0 0 1-3 3H18a3.009 3.009 0 0 1-3-3v-5.2a3.009 3.009 0 0 1 3-3zm10.79-13.56h17.09a1 1 0 0 1 0 2H28.79a1 1 0 0 1 0-2zm-1-11.58a1.003 1.003 0 0 1 1-1h13.99a1 1 0 0 1 0 2H28.79a1.003 1.003 0 0 1-1-1zm1 15.3h13.99a1 1 0 0 1 0 2H28.79a1 1 0 0 1 0-2zm0 12.58h17.09a1 1 0 0 1 0 2H28.79a1 1 0 0 1 0-2zm0 3.72h13.99a1 1 0 0 1 0 2H28.79a1 1 0 0 1 0-2zm17.09-34.32H28.79a1 1 0 0 1 0-2h17.09a1 1 0 0 1 0 2z" fill="#2960cc" opacity="1" data-original="#000000" class=""></path><rect width="7.2" height="7.2" x="17" y="12.1" rx="1" fill="#2960cc" opacity="1" data-original="#000000" class=""></rect><rect width="7.2" height="7.2" x="17" y="28.4" rx="1" fill="#2960cc" opacity="1" data-original="#000000" class=""></rect><rect width="7.2" height="7.2" x="17" y="44.7" rx="1" fill="#2960cc" opacity="1" data-original="#000000" class=""></rect></g></svg>