<svg width="800" height="800" viewBox="0 0 32 32" data-name="Layer 1" xmlns="http://www.w3.org/2000/svg"><path d="M11 2h9v1h-9zM8 29h12v1H8zM4 26V9h1v17zM24 6v11l-1 1V6h1zM23 23l1-1v4h-1v-3zM4 8h7v1H4zM13 5h8v1h-8zM13 8h8v1h-8zM7 11h14v1H7zM7 14h14v1H7zM7 17h14v1H7zM7 20h14l-1 1H7v-1zM7 23h11l-1 1H7v-1z"/><path d="m3.843 7.996 6.003-6.003.707.707L4.55 8.704z"/><path d="M10 9V2h1v7zM20 2v1h2a1 1 0 0 1 1 1v2h1V4a2 2 0 0 0-2-2ZM20 30v-1h2a1 1 0 0 0 1-1v-2h1v2a2 2 0 0 1-2 2ZM8 30v-1H6a1 1 0 0 1-1-1v-2H4v2a2 2 0 0 0 2 2ZM25.03 16.9l1.415 1.415-7.071 7.07-1.414-1.413zM27.86 15.486a1 1 0 0 1 0 1.414l-.707.707-1.414-1.414.707-.707a1 1 0 0 1 1.414 0ZM15.84 27.51l1.41-2.83 1.42 1.42-2.83 1.41z"/></svg>