<svg xmlns="http://www.w3.org/2000/svg" enable-background="new 0 0 24 24" viewBox="0 0 24 24" id="cc-stripe">
  <path fill="#646FDF" d="M22,2.75H2c-1.104,0-2,0.888-2,1.982v14.536c0,1.094,0.896,1.982,2,1.982h20c1.104,0,2-0.888,2-1.982V4.732C24,3.638,23.104,2.75,22,2.75L22,2.75z"></path>
  <path fill="#5761C2" d="M12,2.75H2c-1.104,0-2,0.888-2,1.982v14.536c0,1.094,0.896,1.982,2,1.982h10V2.75L12,2.75z"></path>
  <path fill="#FFF" d="M3.014,14.7c-0.509,0-1.067-0.099-1.617-0.335v-1.4c0.5,0.265,1.129,0.467,1.621,0.467c0.329,0,0.566-0.088,0.566-0.36c0-0.702-2.25-0.438-2.25-2.061c0-1.04,0.8-1.659,2-1.659c0.492,0,0.98,0.075,1.471,0.269v1.379c-0.451-0.24-1.022-0.376-1.471-0.376c-0.312,0-0.504,0.091-0.504,0.318c0,0.661,2.262,0.347,2.262,2.095l0.001-0.001C5.093,14.093,4.247,14.692,3.014,14.7L3.014,14.7z M7.958,10.699H6.833v2.086c0,0.863,0.937,0.595,1.125,0.52v1.194c-0.196,0.107-0.554,0.194-1.037,0.194c-0.879,0-1.538-0.64-1.538-1.508l0.008-4.703l1.446-0.306v1.272h1.121V10.699L7.958,10.699z M11.042,10.799c-0.188-0.062-0.779-0.149-1.129,0.306v3.484H8.434V9.448h1.279l0.092,0.434c0.346-0.632,1.037-0.504,1.233-0.434h0.005V10.799L11.042,10.799z M12.879,14.589h-1.487V9.448h1.487V14.589L12.879,14.589z M12.879,8.688l-1.487,0.313V7.809l1.487-0.314V8.688L12.879,8.688z M15.968,14.696c-0.517,0-0.834-0.22-1.046-0.372l-0.004,1.66l-1.479,0.31V9.448h1.303l0.075,0.363c0.205-0.186,0.578-0.458,1.158-0.458c1.037,0,2.017,0.93,2.017,2.635h0.001C17.993,13.85,17.027,14.692,15.968,14.696L15.968,14.696z M22.65,12.568h-2.896c0.066,0.685,0.575,0.888,1.15,0.888c0.587,0,1.05-0.123,1.454-0.325v1.181c-0.404,0.219-0.933,0.38-1.642,0.38c-1.442,0-2.45-0.896-2.45-2.663c0-1.495,0.855-2.68,2.262-2.68c1.404,0,2.138,1.186,2.138,2.688C22.667,12.182,22.654,12.485,22.65,12.568L22.65,12.568z M15.625,10.654c-0.341,0-0.555,0.12-0.709,0.289l0.008,2.18c0.147,0.152,0.354,0.277,0.7,0.277c0.546,0,0.912-0.592,0.913-1.38C16.538,11.253,16.163,10.649,15.625,10.654L15.625,10.654z M20.516,10.547c-0.371,0-0.779,0.277-0.779,0.938h1.529C21.266,10.823,20.878,10.547,20.516,10.547L20.516,10.547z M20.516,10.547L20.516,10.547L20.516,10.547L20.516,10.547L20.516,10.547z"></path>
  <path fill="#DEDEDE" d="M4.672,12H1.77c0.654,0.563,1.813,0.569,1.813,1.073c0,0.272-0.237,0.36-0.566,0.36c-0.492,0-1.121-0.203-1.621-0.467v1.4C1.947,14.601,2.505,14.7,3.014,14.7c1.234-0.008,2.079-0.607,2.079-1.664l-0.001,0.001C5.092,12.557,4.921,12.232,4.672,12L4.672,12z M6.833,12H5.385l-0.002,1.185c0,0.867,0.659,1.508,1.538,1.508c0.484,0,0.842-0.086,1.037-0.194v-1.194c-0.08,0.031-0.295,0.098-0.516,0.098c-0.299,0-0.609-0.122-0.609-0.619V12L6.833,12z M9.913,12H8.434v2.589h1.479V12L9.913,12z M12.879,12h-1.487v2.589h1.487V12L12.879,12z M17.993,12h-1.455c0,0.007,0,0.014,0,0.021c0,0.788-0.367,1.38-0.913,1.38c-0.346,0-0.554-0.125-0.7-0.277L14.921,12h-1.482v4.295l1.479-0.31l0.004-1.66c0.213,0.152,0.529,0.372,1.046,0.372C17.024,14.692,17.989,13.854,17.993,12L17.993,12z M22.667,12h-4.4c0,0.01,0,0.019,0,0.028c0,1.767,1.008,2.663,2.45,2.663c0.708,0,1.238-0.161,1.642-0.38V13.13c-0.404,0.202-0.867,0.325-1.454,0.325c-0.575,0-1.084-0.202-1.15-0.888h2.896c0.004-0.083,0.017-0.387,0.017-0.532C22.667,12.024,22.667,12.012,22.667,12L22.667,12z"></path>
</svg>
