<svg xmlns="http://www.w3.org/2000/svg" version="1.1" xmlns:xlink="http://www.w3.org/1999/xlink" width="512" height="512" x="0" y="0" viewBox="0 0 64 64" style="enable-background:new 0 0 512 512" xml:space="preserve" class=""><g><path fill="#f2ae14" d="M6.9 49.9V14.1c0-2.6 2.1-4.8 4.8-4.8h8.2c1.1 0 2.2.4 3 1.1l5.4 4.4c.8.7 1.9 1.1 3 1.1h21.2c2.6 0 4.8 2.1 4.8 4.8v29.2c0 2.6-2.1 4.8-4.8 4.8H11.6c-2.6-.1-4.7-2.2-4.7-4.8z" opacity="1" data-original="#f2ae14" class=""></path><path fill="#fecb2d" d="M12 24c-2.8 0-5.1 2.3-5.1 5.2v20.3c0 2.8 2.1 5.1 4.7 5.1h40.8c2.6 0 4.7-2.3 4.7-5.1V26.6c0-2.9-2.4-5.3-5.3-5.3H31.2c-.7 0-1.4.1-2 .4L25 23.5c-.6.3-1.3.4-2 .4z" opacity="1" data-original="#fecb2d" class=""></path><circle cx="32" cy="32.4" r="4.6" fill="#406ec9" opacity="1" data-original="#38cbf4" class=""></circle><path fill="#2960cc" d="M24 48.2V47c0-4.4 3.6-8 8-8s8 3.6 8 8v1.2z" opacity="1" data-original="#33c5f3" class=""></path></g></svg>