<svg xmlns="http://www.w3.org/2000/svg" version="1.1" xmlns:xlink="http://www.w3.org/1999/xlink" width="512" height="512" x="0" y="0" viewBox="0 0 512 512" style="enable-background:new 0 0 512 512" xml:space="preserve" class=""><g><path d="M454.904 423.508H57.096c-26.01 0-47.096-21.085-47.096-47.096V181.803c0-26.01 21.085-47.096 47.096-47.096h397.809c26.01 0 47.096 21.085 47.096 47.096v194.609c-.001 26.01-21.086 47.096-47.097 47.096z" style="" fill="#27a2cc" data-original="#27a2cc" class=""></path><path d="M454.904 377.293H57.096c-26.01 0-47.096-21.085-47.096-47.096V135.588c0-26.01 21.085-47.096 47.096-47.096h397.809c26.01 0 47.096 21.085 47.096 47.096v194.609c-.001 26.01-21.086 47.096-47.097 47.096z" style="" fill="#67ccd1" data-original="#67ccd1"></path><path d="M110.83 140.128c0-15.177 1.06-30.107 3.11-44.719a352.863 352.863 0 0 1-.298-6.916h-56.34C31.178 88.492 10 109.676 10 135.808v194.168c0 26.132 21.178 47.316 47.302 47.316h159.163C151.608 318.895 110.83 234.273 110.83 140.128z" style="" fill="#27a2cc" data-original="#27a2cc" class=""></path><path d="M86.604 314.574v-57.333l38.762 56.13c.719 1.038 1.488.53 1.488-.733l-.537-55.504M246.966 257.134l11.191 56.578c.411 1.158 2.053 1.147 2.449-.017l17.474-56.456M278.08 257.134l17.43 56.578c.411 1.158 2.053 1.147 2.449-.017l11.236-56.456" style="stroke-width:20;stroke-linecap:round;stroke-linejoin:round;stroke-miterlimit:10;" fill="none" stroke="#ffffff" stroke-width="20" stroke-linecap="round" stroke-linejoin="round" stroke-miterlimit="10" data-original="#ffffff"></path><circle cx="188.517" cy="285.854" r="28.72" style="stroke-width:20;stroke-linecap:round;stroke-linejoin:round;stroke-miterlimit:10;" fill="none" stroke="#ffffff" stroke-width="20" stroke-linecap="round" stroke-linejoin="round" stroke-miterlimit="10" data-original="#ffffff"></circle><path d="m169.061 209.07 25.382-66.644c.519-1.268 2.314-1.27 2.835-.003l25.151 66.647M176.977 195.473h37.664M244.888 141.475l21.591 33.067 21.414-32.896M266.395 209.07l.084-34.528M107.906 141.475v67.595M146.177 160.55c0 10.535-8.914 19.076-19.449 19.076-5.225 0-18.691.084-18.691.084s-.084-13.849-.084-19.16c0-4.361-.047-19.076-.047-19.076h18.822c10.535.001 19.449 8.541 19.449 19.076zM419.984 196.972c-4.076-5.808-14.326-10.125-27.723-6.09-12.301 3.706-17.813 23.39-1.769 30.956 2.518 1.187 8.969 3.722 18.702 7.162 21.785 7.7 22.501 36.312-3.354 38.57-8.615.753-20.9-1.564-27.437-9.679M400.835 268.472v6.667M400.835 180.91v7.926" style="stroke-width:20;stroke-linecap:round;stroke-linejoin:round;stroke-miterlimit:10;" fill="none" stroke="#ffffff" stroke-width="20" stroke-linecap="round" stroke-linejoin="round" stroke-miterlimit="10" data-original="#ffffff"></path><path d="M502 322.538v53.654c0 26.132-21.178 47.316-47.302 47.316H57.302C31.178 423.508 10 402.324 10 376.192v-53.654" style="stroke-width:20;stroke-linecap:round;stroke-linejoin:round;stroke-miterlimit:10;" fill="none" stroke="#052a75" stroke-width="20" stroke-linecap="round" stroke-linejoin="round" stroke-miterlimit="10" data-original="#052a75"></path><path d="M454.904 377.293H57.096c-26.01 0-47.096-21.085-47.096-47.096V135.588c0-26.01 21.085-47.096 47.096-47.096h397.809c26.01 0 47.096 21.085 47.096 47.096v194.609c-.001 26.01-21.086 47.096-47.097 47.096z" style="stroke-width:20;stroke-linecap:round;stroke-linejoin:round;stroke-miterlimit:10;" fill="none" stroke="#052a75" stroke-width="20" stroke-linecap="round" stroke-linejoin="round" stroke-miterlimit="10" data-original="#052a75"></path></g></svg>