<svg xmlns="http://www.w3.org/2000/svg" version="1.1" xmlns:xlink="http://www.w3.org/1999/xlink" width="512" height="512" x="0" y="0" viewBox="0 0 512 512" style="enable-background:new 0 0 512 512" xml:space="preserve" class=""><g><path d="M240 226.911c0-38.822 16.882-73.772 43.686-97.905H32.5c-13.807 0-25 11.193-25 25v85.592c0 13.807 11.193 25 25 25h213.001A131.354 131.354 0 0 1 240 226.911z" style="" fill="#ffd15b" data-original="#ffd15b" class=""></path><path d="M283.686 129.006H242c-26.804 24.134-43.686 59.083-43.686 97.905 0 13.092 1.929 25.741 5.501 37.687h41.686A131.314 131.314 0 0 1 240 226.911c0-38.822 16.882-73.771 43.686-97.905z" style="" fill="#ffc344" data-original="#ffc344"></path><path d="M282.107 129.006H124M89 129.006H32.5c-13.807 0-25 11.193-25 25v85.592c0 13.807 11.193 25 25 25h211.936" style="stroke-width:15;stroke-linecap:round;stroke-linejoin:round;stroke-miterlimit:10;" fill="none" stroke="#000000" stroke-width="15" stroke-linecap="round" stroke-linejoin="round" stroke-miterlimit="10" data-original="#000000" class=""></path><path d="M371.75 94.161c-73.316 0-132.75 59.434-132.75 132.75 0 24.407 6.594 47.271 18.087 66.921h96.122c13.234 0 24 10.766 24 24v41.709c70.783-2.864 127.291-61.143 127.291-132.629 0-73.317-59.434-132.751-132.75-132.751z" style="" fill="#dff6fd" data-original="#dff6fd"></path><path d="M371.75 94.161c-7.147 0-14.159.572-21 1.659 63.336 10.067 111.75 64.922 111.75 131.091 0 56.592-35.417 104.902-85.291 124v8.629c70.783-2.864 127.291-61.143 127.291-132.629 0-73.316-59.434-132.75-132.75-132.75z" style="" fill="#c8effe" data-original="#c8effe"></path><path d="M46.241 236.141v-78.678h32.387c6.359 0 11.514 5.361 11.514 11.973v15.392c0 6.613-5.155 11.973-11.514 11.973H46.241M159.249 236.141l-27.18-78.678h0l-27.18 78.678M115.21 212.979h33.009M166.849 157.463l27.179 42.768 27.18-42.768M194.028 200.231v35.91M378.209 359.504c31.79-1.539 63.132-14.446 87.409-38.724 27.709-27.709 40.608-64.62 38.697-100.896M465.618 133.043c-36.175-36.175-88.032-47.099-133.687-32.789M300.218 115.061a133.202 133.202 0 0 0-22.336 17.982c-43.306 43.306-50.417 109.081-21.371 159.789" style="stroke-width:15;stroke-linecap:round;stroke-linejoin:round;stroke-miterlimit:10;" fill="none" stroke="#000000" stroke-width="15" stroke-linecap="round" stroke-linejoin="round" stroke-miterlimit="10" data-original="#000000" class=""></path><path d="M429.742 138.143 467 134.254l-3.889-37.257M371.75 141.411v85.5l58.459 42.976" style="stroke-width:15;stroke-linecap:round;stroke-linejoin:round;stroke-miterlimit:10;" fill="none" stroke="#000000" stroke-width="15" stroke-linecap="round" stroke-linejoin="round" stroke-miterlimit="10" data-original="#000000" class=""></path><path d="M353.209 417.832H32.5c-13.807 0-25-11.193-25-25v-75c0-13.807 11.193-25 25-25h320.709c13.807 0 25 11.193 25 25v75c0 13.807-11.193 25-25 25z" style="" fill="#ffd15b" data-original="#ffd15b" class=""></path><path d="M353.209 292.832h-41.5c13.807 0 25 11.193 25 25v75c0 13.807-11.193 25-25 25h41.5c13.807 0 25-11.193 25-25v-75c0-13.807-11.193-25-25-25z" style="" fill="#ffc344" data-original="#ffc344"></path><path d="M267 417.832h86.209c13.807 0 25-11.193 25-25v-75c0-13.807-11.193-25-25-25H32.5c-13.807 0-25 11.193-25 25v75c0 13.807 11.193 25 25 25H232M186.592 390.136v-69.608M208.01 320.528h-42.836" style="stroke-width:15;stroke-linecap:round;stroke-linejoin:round;stroke-miterlimit:10;" fill="none" stroke="#000000" stroke-width="15" stroke-linecap="round" stroke-linejoin="round" stroke-miterlimit="10" data-original="#000000" class=""></path><path d="m157.613 390.136-24.047-69.608h0l-24.047 69.608M118.65 369.644h29.204M47.28 320.528v69.608h40.389M298.04 390.136v-69.608h29.796c5.85 0 10.593 4.743 10.593 10.593v13.618c0 5.85-4.743 10.593-10.593 10.593H298.04M319.062 355.332l19.367 34.804M271.934 320.527h-40.389v69.609h40.389M232.234 355.332h39.7" style="stroke-width:15;stroke-linecap:round;stroke-linejoin:round;stroke-miterlimit:10;" fill="none" stroke="#000000" stroke-width="15" stroke-linecap="round" stroke-linejoin="round" stroke-miterlimit="10" data-original="#000000" class=""></path></g></svg>